<?xml version="1.0" encoding="UTF-8"?>
<svg width="24px" height="24px" viewBox="0 0 24 24" version="1.1" xmlns="http://www.w3.org/2000/svg" xmlns:xlink="http://www.w3.org/1999/xlink">
    <title>icon-facebook</title>
    <g id="Welcome" stroke="none" stroke-width="1" fill="none" fill-rule="evenodd">
        <g id="Home---Desktop-Copy-2" transform="translate(-287.000000, -11.000000)" fill-rule="nonzero">
            <g id="nav-bar">
                <g id="icon-facebook" transform="translate(287.000000, 11.000000)">
                    <path d="M12,1.04 C6.5,1.04 2,5.53 2,11.06 C2,16.06 5.66,20.21 10.44,20.96 L10.44,13.96 L7.9,13.96 L7.9,11.06 L10.44,11.06 L10.44,8.85 C10.44,6.34 11.93,4.96 14.22,4.96 C15.31,4.96 16.45,5.15 16.45,5.15 L16.45,7.62 L15.19,7.62 C13.95,7.62 13.56,8.39 13.56,9.18 L13.56,11.06 L16.34,11.06 L15.89,13.96 L13.56,13.96 L13.56,20.96 C18.4287521,20.1910733 22.0110537,15.9890844 22.0000255,11.06 C22.0000255,5.53 17.5,1.04 12,1.04 Z" id="Path" fill="#FFFFFF"></path>
                    <rect id="Rectangle" fill-opacity="0" fill="#000000" x="0" y="0" width="24" height="24"></rect>
                </g>
            </g>
        </g>
    </g>
</svg>