<?xml version="1.0" encoding="UTF-8"?>
<svg width="24px" height="24px" viewBox="0 0 24 24" version="1.1" xmlns="http://www.w3.org/2000/svg" xmlns:xlink="http://www.w3.org/1999/xlink">
    <title>icon-twitch</title>
    <g id="Welcome" stroke="none" stroke-width="1" fill="none" fill-rule="evenodd">
        <g id="Home---Desktop-Copy-2" transform="translate(-248.000000, -11.000000)" fill-rule="nonzero">
            <g id="nav-bar">
                <g id="icon-twitch" transform="translate(248.000000, 11.000000)">
                    <rect id="Rectangle" fill-opacity="0" fill="#000000" x="0" y="0" width="24" height="24"></rect>
                    <path d="M11.64,5.93 L13.07,5.93 L13.07,10.21 L11.64,10.21 M15.57,5.93 L17,5.93 L17,10.21 L15.57,10.21 M7,2 L3.43,5.57 L3.43,18.43 L7.71,18.43 L7.71,22 L11.29,18.43 L14.14,18.43 L20.57,12 L20.57,2 M19.14,11.29 L16.29,14.14 L13.43,14.14 L10.93,16.64 L10.93,14.14 L7.71,14.14 L7.71,3.43 L19.14,3.43 L19.14,11.29 Z" id="Shape" fill="#FFFFFF"></path>
                </g>
            </g>
        </g>
    </g>
</svg>