<?xml version="1.0" encoding="UTF-8"?>
<svg width="24px" height="24px" viewBox="0 0 24 24" version="1.1" xmlns="http://www.w3.org/2000/svg" xmlns:xlink="http://www.w3.org/1999/xlink">
    <title>icon-twitter</title>
    <g id="Welcome" stroke="none" stroke-width="1" fill="none" fill-rule="evenodd">
        <g id="Home---Desktop-Copy-2" transform="translate(-326.000000, -11.000000)" fill-rule="nonzero">
            <g id="nav-bar">
                <g id="icon-twitter" transform="translate(326.000000, 11.000000)">
                    <path d="M22.46,6 C21.69,6.35 20.86,6.58 20,6.69 C20.88,6.16 21.56,5.32 21.88,4.31 C21.05,4.81 20.13,5.16 19.16,5.36 C18.37,4.5 17.26,4 16,4 C13.65,4 11.73,5.92 11.73,8.29 C11.73,8.63 11.77,8.96 11.84,9.27 C8.28,9.09 5.11,7.38 3,4.79 C2.63,5.42 2.42,6.16 2.42,6.94 C2.42,8.43 3.17,9.75 4.33,10.5 C3.62,10.5 2.96,10.3 2.38,10 L2.38,10.03 C2.38,12.11 3.86,13.85 5.82,14.24 C5.19072687,14.4122085 4.53009511,14.4361692 3.89,14.31 C4.44690194,16.0579234 6.05580869,17.2565589 7.89,17.29 C6.3736301,18.4904377 4.49399629,19.139317 2.56,19.13 C2.22,19.13 1.88,19.11 1.54,19.07 C3.44,20.29 5.7,21 8.12,21 C16,21 20.33,14.46 20.33,8.79 C20.33,8.6 20.33,8.42 20.32,8.23 C21.16,7.63 21.88,6.87 22.46,6 L22.46,6 Z" id="Path" fill="#FFFFFF"></path>
                    <rect id="Rectangle" fill-opacity="0" fill="#000000" x="0" y="0" width="24" height="24"></rect>
                </g>
            </g>
        </g>
    </g>
</svg>