<?xml version="1.0" encoding="UTF-8"?>
<svg width="155px" height="24px" viewBox="0 0 155 24" version="1.1" xmlns="http://www.w3.org/2000/svg" xmlns:xlink="http://www.w3.org/1999/xlink">
    <title>try-hardGaming</title>
    <g id="Welcome" stroke="none" stroke-width="1" fill="none" fill-rule="evenodd">
        <g id="Home---Desktop-Copy-3" transform="translate(-642.000000, -13.000000)" fill="#FFFFFF" fill-rule="nonzero">
            <g id="nav-bar">
                <path d="M646.833984,31.234375 C647.490234,31.234375 648.099609,31.1289062 648.662109,30.9179688 L648.662109,30.9179688 L648.685547,28.3398438 C648.482422,28.3945312 648.220703,28.421875 647.900391,28.421875 C647.509766,28.421875 647.246094,28.328125 647.109375,28.140625 C646.972656,27.953125 646.904297,27.609375 646.904297,27.109375 L646.904297,27.109375 L646.904297,20.8164062 L648.603516,20.8164062 L648.603516,18.3203125 L646.904297,18.3203125 L646.904297,15.203125 L643.587891,15.203125 L643.587891,18.3203125 L642.123047,18.3203125 L642.123047,20.8164062 L643.587891,20.8164062 L643.587891,27.5546875 C643.611328,30.0078125 644.693359,31.234375 646.833984,31.234375 Z M653.736328,31 L653.736328,22.6210938 C654.056641,21.8242188 654.669922,21.4257812 655.576172,21.4257812 L655.576172,21.4257812 L656.677734,21.5195312 L656.712891,18.2382812 C656.478516,18.1367188 656.173828,18.0859375 655.798828,18.0859375 C654.876953,18.0859375 654.154297,18.6210938 653.630859,19.6914062 L653.630859,19.6914062 L653.537109,18.3203125 L650.408203,18.3203125 L650.408203,31 L653.736328,31 Z M659.970703,36.1210938 C661.697266,36.1210938 662.873047,35.046875 663.498047,32.8984375 L663.498047,32.8984375 L667.669922,18.3203125 L664.130859,18.3203125 L662.443359,25.4804688 L660.919922,18.3203125 L657.357422,18.3203125 L661.013672,31.1289062 L660.755859,31.984375 C660.623047,32.4765625 660.425781,32.8222656 660.164062,33.0214844 C659.902344,33.2207031 659.513672,33.3203125 658.998047,33.3203125 L658.998047,33.3203125 L658.611328,33.3085938 L658.611328,35.8984375 C659.119141,36.046875 659.572266,36.1210938 659.970703,36.1210938 Z M675.052734,25.0703125 L675.052734,22.3046875 L669.322266,22.3046875 L669.322266,25.0703125 L675.052734,25.0703125 Z M681.041016,31 L681.041016,21.6953125 C681.376953,21.140625 681.845703,20.8632812 682.447266,20.8632812 C682.962891,20.8632812 683.335938,21.0292969 683.566406,21.3613281 C683.796875,21.6933594 683.912109,22.2304688 683.912109,22.9726562 L683.912109,22.9726562 L683.912109,31 L687.240234,31 L687.240234,22.9375 C687.232422,21.328125 686.927734,20.1171875 686.326172,19.3046875 C685.724609,18.4921875 684.845703,18.0859375 683.689453,18.0859375 C682.642578,18.0859375 681.759766,18.5351562 681.041016,19.4335938 L681.041016,19.4335938 L681.041016,13 L677.724609,13 L677.724609,31 L681.041016,31 Z M692.947266,31.234375 C693.962891,31.234375 694.767578,30.828125 695.361328,30.015625 C695.455078,30.4765625 695.548828,30.8046875 695.642578,31 L695.642578,31 L698.982422,31 L698.982422,30.8007812 C698.685547,30.1835938 698.529297,29.328125 698.513672,28.234375 L698.513672,28.234375 L698.513672,22.2695312 C698.513672,20.9257812 698.132812,19.8925781 697.371094,19.1699219 C696.609375,18.4472656 695.533203,18.0859375 694.142578,18.0859375 C692.798828,18.0859375 691.6875,18.4667969 690.808594,19.2285156 C689.929688,19.9902344 689.490234,20.9570312 689.490234,22.1289062 L689.490234,22.1289062 L692.806641,22.1289062 C692.806641,21.1601562 693.220703,20.6757812 694.048828,20.6757812 C694.423828,20.6757812 694.708984,20.7929688 694.904297,21.0273438 C695.099609,21.2617188 695.197266,21.6640625 695.197266,22.234375 L695.197266,22.234375 L695.197266,23.2539062 L694.189453,23.2539062 C692.595703,23.2695312 691.375,23.640625 690.527344,24.3671875 C689.679688,25.09375 689.255859,26.1210938 689.255859,27.4492188 C689.255859,28.5664062 689.605469,29.4765625 690.304688,30.1796875 C691.003906,30.8828125 691.884766,31.234375 692.947266,31.234375 Z M693.685547,28.6328125 C692.951172,28.6328125 692.583984,28.1640625 692.583984,27.2265625 C692.583984,26.625 692.746094,26.1445312 693.070312,25.7851562 C693.394531,25.4257812 693.837891,25.2460938 694.400391,25.2460938 L694.400391,25.2460938 L695.197266,25.2460938 L695.197266,27.8828125 C695.072266,28.0859375 694.880859,28.2617188 694.623047,28.4101562 C694.365234,28.5585938 694.052734,28.6328125 693.685547,28.6328125 Z M704.232422,31 L704.232422,22.6210938 C704.552734,21.8242188 705.166016,21.4257812 706.072266,21.4257812 L706.072266,21.4257812 L707.173828,21.5195312 L707.208984,18.2382812 C706.974609,18.1367188 706.669922,18.0859375 706.294922,18.0859375 C705.373047,18.0859375 704.650391,18.6210938 704.126953,19.6914062 L704.126953,19.6914062 L704.033203,18.3203125 L700.904297,18.3203125 L700.904297,31 L704.232422,31 Z M712.541016,31.234375 C713.611328,31.234375 714.486328,30.7265625 715.166016,29.7109375 L715.166016,29.7109375 L715.318359,31 L718.330078,31 L718.330078,13 L714.990234,13 L714.990234,19.3515625 C714.341797,18.5078125 713.529297,18.0859375 712.552734,18.0859375 C711.208984,18.0859375 710.185547,18.5976562 709.482422,19.6210938 C708.779297,20.6445312 708.427734,22.1953125 708.427734,24.2734375 L708.427734,24.2734375 L708.427734,25.234375 C708.443359,27.203125 708.800781,28.6953125 709.5,29.7109375 C710.199219,30.7265625 711.212891,31.234375 712.541016,31.234375 Z M713.501953,28.46875 C712.869141,28.46875 712.419922,28.2207031 712.154297,27.7246094 C711.888672,27.2285156 711.755859,26.3554688 711.755859,25.1054688 L711.755859,25.1054688 L711.755859,24.2265625 C711.755859,22.96875 711.896484,22.09375 712.177734,21.6015625 C712.458984,21.109375 712.904297,20.8632812 713.513672,20.8632812 C714.169922,20.8632812 714.662109,21.1757812 714.990234,21.8007812 L714.990234,21.8007812 L714.990234,27.5898438 C714.654297,28.1757812 714.158203,28.46875 713.501953,28.46875 Z M732.451172,31.234375 C733.599609,31.234375 734.65625,31.0527344 735.621094,30.6894531 C736.585938,30.3261719 737.400391,29.7851562 738.064453,29.0664062 L738.064453,29.0664062 L738.064453,22.0234375 L732.193359,22.0234375 L732.193359,24.625 L734.607422,24.625 L734.607422,27.7539062 L734.302734,27.9648438 C733.880859,28.2382812 733.330078,28.375 732.650391,28.375 C731.587891,28.375 730.824219,28.0214844 730.359375,27.3144531 C729.894531,26.6074219 729.662109,25.4765625 729.662109,23.921875 L729.662109,23.921875 L729.662109,20.828125 C729.677734,19.34375 729.896484,18.2617188 730.318359,17.5820312 C730.740234,16.9023438 731.416016,16.5625 732.345703,16.5625 C733.111328,16.5625 733.673828,16.7597656 734.033203,17.1542969 C734.392578,17.5488281 734.619141,18.2890625 734.712891,19.375 L734.712891,19.375 L738.064453,19.375 C737.916016,17.421875 737.371094,15.9882812 736.429688,15.0742188 C735.488281,14.1601562 734.091797,13.703125 732.240234,13.703125 C730.271484,13.703125 728.773438,14.3378906 727.746094,15.6074219 C726.71875,16.8769531 726.205078,18.6875 726.205078,21.0390625 L726.205078,21.0390625 L726.205078,24.109375 C726.236328,26.4296875 726.794922,28.1972656 727.880859,29.4121094 C728.966797,30.6269531 730.490234,31.234375 732.451172,31.234375 Z M743.666016,31.234375 C744.681641,31.234375 745.486328,30.828125 746.080078,30.015625 C746.173828,30.4765625 746.267578,30.8046875 746.361328,31 L746.361328,31 L749.701172,31 L749.701172,30.8007812 C749.404297,30.1835938 749.248047,29.328125 749.232422,28.234375 L749.232422,28.234375 L749.232422,22.2695312 C749.232422,20.9257812 748.851562,19.8925781 748.089844,19.1699219 C747.328125,18.4472656 746.251953,18.0859375 744.861328,18.0859375 C743.517578,18.0859375 742.40625,18.4667969 741.527344,19.2285156 C740.648438,19.9902344 740.208984,20.9570312 740.208984,22.1289062 L740.208984,22.1289062 L743.525391,22.1289062 C743.525391,21.1601562 743.939453,20.6757812 744.767578,20.6757812 C745.142578,20.6757812 745.427734,20.7929688 745.623047,21.0273438 C745.818359,21.2617188 745.916016,21.6640625 745.916016,22.234375 L745.916016,22.234375 L745.916016,23.2539062 L744.908203,23.2539062 C743.314453,23.2695312 742.09375,23.640625 741.246094,24.3671875 C740.398438,25.09375 739.974609,26.1210938 739.974609,27.4492188 C739.974609,28.5664062 740.324219,29.4765625 741.023438,30.1796875 C741.722656,30.8828125 742.603516,31.234375 743.666016,31.234375 Z M744.404297,28.6328125 C743.669922,28.6328125 743.302734,28.1640625 743.302734,27.2265625 C743.302734,26.625 743.464844,26.1445312 743.789062,25.7851562 C744.113281,25.4257812 744.556641,25.2460938 745.119141,25.2460938 L745.119141,25.2460938 L745.916016,25.2460938 L745.916016,27.8828125 C745.791016,28.0859375 745.599609,28.2617188 745.341797,28.4101562 C745.083984,28.5585938 744.771484,28.6328125 744.404297,28.6328125 Z M754.962891,31 L754.962891,21.7890625 C755.298828,21.171875 755.751953,20.8632812 756.322266,20.8632812 C756.822266,20.8632812 757.169922,21.0253906 757.365234,21.3496094 C757.560547,21.6738281 757.658203,22.1992188 757.658203,22.9257812 L757.658203,22.9257812 L757.658203,31 L760.974609,31 L760.974609,22.3984375 L760.951172,22 C761.255859,21.2421875 761.716797,20.8632812 762.333984,20.8632812 C762.818359,20.8632812 763.162109,21.0195312 763.365234,21.3320312 C763.568359,21.6445312 763.669922,22.1679688 763.669922,22.9023438 L763.669922,22.9023438 L763.669922,31 L766.986328,31 L766.986328,22.6914062 C766.931641,19.6210938 765.794922,18.0859375 763.576172,18.0859375 C762.232422,18.0859375 761.197266,18.65625 760.470703,19.796875 C759.947266,18.65625 759.052734,18.0859375 757.787109,18.0859375 C756.568359,18.0859375 755.587891,18.5546875 754.845703,19.4921875 L754.845703,19.4921875 L754.751953,18.3203125 L751.646484,18.3203125 L751.646484,31 L754.962891,31 Z M771.240234,16.8085938 C771.794922,16.8085938 772.234375,16.640625 772.558594,16.3046875 C772.882812,15.96875 773.044922,15.546875 773.044922,15.0390625 C773.044922,14.5234375 772.880859,14.1015625 772.552734,13.7734375 C772.224609,13.4453125 771.787109,13.28125 771.240234,13.28125 C770.693359,13.28125 770.255859,13.4453125 769.927734,13.7734375 C769.599609,14.1015625 769.435547,14.5234375 769.435547,15.0390625 C769.435547,15.546875 769.597656,15.96875 769.921875,16.3046875 C770.246094,16.640625 770.685547,16.8085938 771.240234,16.8085938 Z M772.916016,31 L772.916016,18.3203125 L769.587891,18.3203125 L769.587891,31 L772.916016,31 Z M778.728516,31 L778.728516,21.7890625 C779.064453,21.171875 779.533203,20.8632812 780.134766,20.8632812 C780.673828,20.8632812 781.050781,21.0253906 781.265625,21.3496094 C781.480469,21.6738281 781.587891,22.1953125 781.587891,22.9140625 L781.587891,22.9140625 L781.587891,31 L784.916016,31 L784.916016,22.6679688 C784.853516,19.6132812 783.732422,18.0859375 781.552734,18.0859375 C780.341797,18.0859375 779.361328,18.5820312 778.611328,19.5742188 L778.611328,19.5742188 L778.517578,18.3203125 L775.400391,18.3203125 L775.400391,31 L778.728516,31 Z M791.689453,35.9921875 C793.384766,35.9921875 794.685547,35.5644531 795.591797,34.7089844 C796.498047,33.8535156 796.951172,32.6171875 796.951172,31 L796.951172,31 L796.951172,18.3203125 L793.962891,18.3203125 L793.833984,19.4453125 C793.208984,18.5390625 792.322266,18.0859375 791.173828,18.0859375 C789.822266,18.0859375 788.771484,18.5976562 788.021484,19.6210938 C787.271484,20.6445312 786.896484,22.1953125 786.896484,24.2734375 L786.896484,24.2734375 L786.896484,25.2109375 C786.912109,27.125 787.289062,28.6074219 788.027344,29.6582031 C788.765625,30.7089844 789.810547,31.234375 791.162109,31.234375 C792.177734,31.234375 793.001953,30.8203125 793.634766,29.9921875 L793.634766,29.9921875 L793.634766,31.0820312 C793.626953,31.8710938 793.460938,32.4433594 793.136719,32.7988281 C792.8125,33.1542969 792.279297,33.3320312 791.537109,33.3320312 C791.091797,33.3320312 790.619141,33.2285156 790.119141,33.0214844 C789.619141,32.8144531 789.212891,32.546875 788.900391,32.21875 L788.900391,32.21875 L787.787109,34.515625 C788.162109,34.9453125 788.732422,35.2988281 789.498047,35.5761719 C790.263672,35.8535156 790.994141,35.9921875 791.689453,35.9921875 Z M792.123047,28.46875 C791.458984,28.46875 790.974609,28.2011719 790.669922,27.6660156 C790.365234,27.1308594 790.212891,26.2773438 790.212891,25.1054688 L790.212891,25.1054688 L790.212891,24.2734375 C790.212891,23.078125 790.371094,22.2109375 790.6875,21.671875 C791.003906,21.1328125 791.490234,20.8632812 792.146484,20.8632812 C792.794922,20.8632812 793.291016,21.1328125 793.634766,21.671875 L793.634766,21.671875 L793.634766,27.7304688 C793.306641,28.2226562 792.802734,28.46875 792.123047,28.46875 Z" id="try-hardGaming"></path>
            </g>
        </g>
    </g>
</svg>